<mxfile host="drawio-plugin" modified="2021-09-22T14:12:28.145Z" agent="5.0 (X11; Linux x86_64) AppleWebKit/537.36 (KHTML, like Gecko) Chrome/89.0.4389.114 Safari/537.36" etag="cXZ4jrYoiHg-hy6BIweK" version="14.7.4" type="embed"><diagram id="G4t1x3i_cumIOjZ8GDXV" name="Page-1"><mxGraphModel dx="915" dy="830" grid="1" gridSize="10" guides="1" tooltips="1" connect="1" arrows="1" fold="1" page="1" pageScale="1" pageWidth="850" pageHeight="1100" math="0" shadow="0"><root><mxCell id="0"/><mxCell id="1" parent="0"/><mxCell id="4NMri5ObQx2eB0Vx6lmc-10" value="Send message" style="edgeStyle=orthogonalEdgeStyle;rounded=0;orthogonalLoop=1;jettySize=auto;html=1;entryX=0;entryY=0.5;entryDx=0;entryDy=0;startArrow=none;startFill=0;" parent="1" source="4NMri5ObQx2eB0Vx6lmc-1" target="4NMri5ObQx2eB0Vx6lmc-4" edge="1"><mxGeometry relative="1" as="geometry"/></mxCell><mxCell id="4NMri5ObQx2eB0Vx6lmc-1" value="Client" style="shape=umlActor;verticalLabelPosition=bottom;verticalAlign=top;html=1;outlineConnect=0;" parent="1" vertex="1"><mxGeometry x="40" y="70" width="30" height="60" as="geometry"/></mxCell><mxCell id="4NMri5ObQx2eB0Vx6lmc-13" value="Send message" style="edgeStyle=orthogonalEdgeStyle;rounded=0;orthogonalLoop=1;jettySize=auto;html=1;entryX=0;entryY=0.5;entryDx=0;entryDy=0;startArrow=none;startFill=0;" parent="1" source="4NMri5ObQx2eB0Vx6lmc-3" target="GdDrrSZIIYJAX2H4kpIf-1" edge="1"><mxGeometry relative="1" as="geometry"/></mxCell><mxCell id="4NMri5ObQx2eB0Vx6lmc-3" value="Client" style="shape=umlActor;verticalLabelPosition=bottom;verticalAlign=top;html=1;outlineConnect=0;" parent="1" vertex="1"><mxGeometry x="40" y="170" width="30" height="60" as="geometry"/></mxCell><mxCell id="4NMri5ObQx2eB0Vx6lmc-16" value="PUB to recipient partition" style="rounded=0;orthogonalLoop=1;jettySize=auto;html=1;startArrow=none;startFill=0;exitX=1;exitY=0.5;exitDx=0;exitDy=0;" parent="1" source="4NMri5ObQx2eB0Vx6lmc-4" target="4NMri5ObQx2eB0Vx6lmc-9" edge="1"><mxGeometry x="0.0038" y="-2" relative="1" as="geometry"><mxPoint x="-1" as="offset"/></mxGeometry></mxCell><mxCell id="4NMri5ObQx2eB0Vx6lmc-4" value="&lt;font style=&quot;font-size: 12px&quot;&gt;Messaging&lt;/font&gt;" style="rounded=1;whiteSpace=wrap;html=1;gradientColor=#ffa500;fillColor=#ffcd28;strokeColor=#d79b00;" parent="1" vertex="1"><mxGeometry x="200" y="70" width="120" height="60" as="geometry"/></mxCell><mxCell id="4NMri5ObQx2eB0Vx6lmc-9" value="PUB/SUB&lt;br&gt;backplane" style="strokeWidth=2;html=1;shape=mxgraph.flowchart.direct_data;whiteSpace=wrap;gradientColor=#97d077;fillColor=#d5e8d4;strokeColor=#82b366;" parent="1" vertex="1"><mxGeometry x="680" y="60" width="120" height="80" as="geometry"/></mxCell><mxCell id="_z2AKbsd9psE2ULNNjwj-2" value="Send messages for a recipient to a specific partition" style="shape=note;whiteSpace=wrap;html=1;backgroundOutline=1;darkOpacity=0.05;align=left;gradientColor=#b3b3b3;fillColor=#f5f5f5;strokeColor=#666666;" parent="1" vertex="1"><mxGeometry x="80" y="40" width="310" height="20" as="geometry"/></mxCell><mxCell id="GdDrrSZIIYJAX2H4kpIf-1" value="&lt;font style=&quot;font-size: 12px&quot;&gt;Messaging&lt;/font&gt;" style="rounded=1;whiteSpace=wrap;html=1;gradientColor=#ffa500;fillColor=#ffcd28;strokeColor=#d79b00;" parent="1" vertex="1"><mxGeometry x="200" y="170" width="120" height="60" as="geometry"/></mxCell><mxCell id="GdDrrSZIIYJAX2H4kpIf-2" value="PUB to recipient partition" style="rounded=0;orthogonalLoop=1;jettySize=auto;html=1;startArrow=none;startFill=0;exitX=1;exitY=0.25;exitDx=0;exitDy=0;entryX=0.008;entryY=0.65;entryDx=0;entryDy=0;entryPerimeter=0;" parent="1" source="GdDrrSZIIYJAX2H4kpIf-1" target="4NMri5ObQx2eB0Vx6lmc-9" edge="1"><mxGeometry x="0.0038" y="-2" relative="1" as="geometry"><mxPoint x="-1" as="offset"/><mxPoint x="290" y="111" as="sourcePoint"/><mxPoint x="600" y="200" as="targetPoint"/></mxGeometry></mxCell><mxCell id="NT00lGCKnByhpFSKJMey-1" value="&lt;font style=&quot;font-size: 12px&quot;&gt;ID Gen&lt;/font&gt;" style="rounded=1;whiteSpace=wrap;html=1;gradientColor=#ffa500;fillColor=#ffcd28;strokeColor=#d79b00;" parent="1" vertex="1"><mxGeometry x="680" y="180" width="120" height="60" as="geometry"/></mxCell><mxCell id="NT00lGCKnByhpFSKJMey-2" value="Get IDs" style="endArrow=classic;html=1;entryX=0;entryY=0.5;entryDx=0;entryDy=0;exitX=1;exitY=0.75;exitDx=0;exitDy=0;" parent="1" source="GdDrrSZIIYJAX2H4kpIf-1" target="NT00lGCKnByhpFSKJMey-1" edge="1"><mxGeometry x="0.0444" y="-3" width="50" height="50" relative="1" as="geometry"><mxPoint x="340" y="220" as="sourcePoint"/><mxPoint x="520" y="430" as="targetPoint"/><mxPoint as="offset"/></mxGeometry></mxCell></root></mxGraphModel></diagram></mxfile>